<?xml version="1.0" encoding="UTF-8" standalone="no"?>
<!-- Created with Inkscape (http://www.inkscape.org/) -->

<svg
   xmlns:dc="http://purl.org/dc/elements/1.1/"
   xmlns:cc="http://creativecommons.org/ns#"
   xmlns:rdf="http://www.w3.org/1999/02/22-rdf-syntax-ns#"
   xmlns:svg="http://www.w3.org/2000/svg"
   xmlns="http://www.w3.org/2000/svg"
   xmlns:sodipodi="http://sodipodi.sourceforge.net/DTD/sodipodi-0.dtd"
   xmlns:inkscape="http://www.inkscape.org/namespaces/inkscape"
   width="150mm"
   height="120mm"
   viewBox="0 0 149.99999 120"
   version="1.1"
   id="svg4738"
   inkscape:version="0.92.4 (5da689c313, 2019-01-14)"
   sodipodi:docname="th-cla3.svg">
  <defs
     id="defs4732" />
  <sodipodi:namedview
     id="base"
     pagecolor="#ffffff"
     bordercolor="#666666"
     borderopacity="1.0"
     inkscape:pageopacity="0.0"
     inkscape:pageshadow="2"
     inkscape:zoom="1.979899"
     inkscape:cx="240.11556"
     inkscape:cy="93.076919"
     inkscape:document-units="mm"
     inkscape:current-layer="layer1"
     showgrid="false"
     inkscape:window-width="1920"
     inkscape:window-height="1177"
     inkscape:window-x="1912"
     inkscape:window-y="-8"
     inkscape:window-maximized="1"
     fit-margin-top="0"
     fit-margin-left="0"
     fit-margin-right="0"
     fit-margin-bottom="0" />
  <metadata
     id="metadata4735">
    <rdf:RDF>
      <cc:Work
         rdf:about="">
        <dc:format>image/svg+xml</dc:format>
        <dc:type
           rdf:resource="http://purl.org/dc/dcmitype/StillImage" />
        <dc:title></dc:title>
      </cc:Work>
    </rdf:RDF>
  </metadata>
  <g
     inkscape:label="Layer 1"
     inkscape:groupmode="layer"
     id="layer1"
     transform="translate(-49.512812,-65.242737)">
    <ellipse
       style="fill:#000000;fill-opacity:1;stroke:#000000;stroke-width:0.87992215;stroke-miterlimit:4;stroke-dasharray:none;stroke-opacity:1"
       id="path4744"
       cx="78.777695"
       cy="125.14571"
       rx="8.293807"
       ry="8.8951626" />
    <path
       id="path4746"
       style="fill:#000000;fill-opacity:0.5151515;stroke:#000000;stroke-width:1.11080635;stroke-miterlimit:4;stroke-dasharray:none;stroke-opacity:1"
       d="m 79.200997,137.23664 a 15.991679,8.6222676 0 0 0 -15.991613,8.62256 15.991679,8.6222676 0 0 0 15.991613,8.62212 15.991679,8.6222676 0 0 0 15.991929,-8.62212 15.991679,8.6222676 0 0 0 -15.991929,-8.62256 z"
       inkscape:connector-curvature="0" />
    <rect
       style="fill:#000000;fill-opacity:0.41919197;stroke:#000000;stroke-width:0.91469777;stroke-miterlimit:4;stroke-dasharray:none;stroke-opacity:1"
       id="rect4748"
       width="28.317947"
       height="37.157139"
       x="64.532898"
       y="148.9007" />
    <ellipse
       style="fill:#000000;fill-opacity:1;stroke:#000000;stroke-width:0.87992215;stroke-miterlimit:4;stroke-dasharray:none;stroke-opacity:1"
       id="path4744-9"
       cx="122.05396"
       cy="125.01506"
       rx="8.293807"
       ry="8.8951626" />
    <path
       id="path4746-5"
       style="fill:#000000;fill-opacity:0.5151515;stroke:#000000;stroke-width:1.11080635;stroke-miterlimit:4;stroke-dasharray:none;stroke-opacity:1"
       d="m 122.47723,137.10599 a 15.991679,8.6222676 0 0 0 -15.99161,8.62256 15.991679,8.6222676 0 0 0 15.99161,8.62212 15.991679,8.6222676 0 0 0 15.99193,-8.62212 15.991679,8.6222676 0 0 0 -15.99193,-8.62256 z"
       inkscape:connector-curvature="0" />
    <rect
       style="fill:#000000;fill-opacity:0.41919197;stroke:#000000;stroke-width:0.91469777;stroke-miterlimit:4;stroke-dasharray:none;stroke-opacity:1"
       id="rect4748-9"
       width="28.317949"
       height="37.157139"
       x="107.80914"
       y="148.77005" />
    <ellipse
       style="fill:#000000;fill-opacity:1;stroke:#000000;stroke-width:0.87992215;stroke-miterlimit:4;stroke-dasharray:none;stroke-opacity:1"
       id="path4744-7"
       cx="160.27345"
       cy="124.74779"
       rx="8.293807"
       ry="8.8951626" />
    <path
       id="path4746-2"
       style="fill:#000000;fill-opacity:0.5151515;stroke:#000000;stroke-width:1.11080635;stroke-miterlimit:4;stroke-dasharray:none;stroke-opacity:1"
       d="m 160.69677,136.83873 a 15.991679,8.6222676 0 0 0 -15.99161,8.62256 15.991679,8.6222676 0 0 0 15.99161,8.62212 15.991679,8.6222676 0 0 0 15.99193,-8.62212 15.991679,8.6222676 0 0 0 -15.99193,-8.62256 z"
       inkscape:connector-curvature="0" />
    <rect
       style="fill:#000000;fill-opacity:0.41919197;stroke:#000000;stroke-width:0.91469777;stroke-miterlimit:4;stroke-dasharray:none;stroke-opacity:1"
       id="rect4748-0"
       width="28.317949"
       height="37.157139"
       x="146.02866"
       y="148.50278" />
  </g>
</svg>
